<?xml version="1.0" standalone="no"?>
<!DOCTYPE svg PUBLIC "-//W3C//DTD SVG 20010904//EN"
 "http://www.w3.org/TR/2001/REC-SVG-20010904/DTD/svg10.dtd">
<svg version="1.0" xmlns="http://www.w3.org/2000/svg"
 width="200.000000pt" height="200.000000pt" viewBox="0 0 200.000000 200.000000"
 preserveAspectRatio="xMidYMid meet">

<g transform="translate(0.000000,200.000000) scale(0.100000,-0.100000)"
fill="#000000" stroke="none">
<path d="M680 1734 c-231 -41 -403 -161 -490 -338 -123 -251 -100 -494 63
-673 27 -29 46 -53 43 -53 -3 0 -28 9 -56 20 -27 11 -50 16 -50 11 0 -5 24
-31 53 -57 79 -72 192 -120 375 -160 28 -6 28 6 0 59 -13 27 -23 67 -25 112
-4 60 -1 77 19 115 28 52 103 112 168 137 25 9 49 20 53 23 5 4 -1 38 -12 75
-39 127 -22 206 57 258 43 29 46 37 45 120 0 9 3 17 7 17 4 0 7 15 7 33 1 17
4 57 8 87 3 30 8 71 10 90 4 32 11 67 15 80 1 3 1 15 0 27 -1 18 5 22 37 26
21 2 -27 4 -107 4 -82 1 -178 -5 -220 -13z"/>
<path d="M1073 1733 c9 -2 23 -2 30 0 6 3 -1 5 -18 5 -16 0 -22 -2 -12 -5z"/>
<path d="M1128 1723 c7 -3 16 -2 19 1 4 3 -2 6 -13 5 -11 0 -14 -3 -6 -6z"/>
<path d="M1175 1710 c11 -5 27 -9 35 -9 9 0 8 4 -5 9 -11 5 -27 9 -35 9 -9 0
-8 -4 5 -9z"/>
<path d="M1881 1624 c0 -11 3 -14 6 -6 3 7 2 16 -1 19 -3 4 -6 -2 -5 -13z"/>
<path d="M1518 1603 c12 -2 30 -2 40 0 9 3 -1 5 -23 4 -22 0 -30 -2 -17 -4z"/>
<path d="M1598 1603 c7 -3 16 -2 19 1 4 3 -2 6 -13 5 -11 0 -14 -3 -6 -6z"/>
<path d="M971 1154 c0 -11 3 -14 6 -6 3 7 2 16 -1 19 -3 4 -6 -2 -5 -13z"/>
<path d="M1292 1145 c0 -16 2 -22 5 -12 2 9 2 23 0 30 -3 6 -5 -1 -5 -18z"/>
<path d="M907 965 c-46 -111 -36 -147 63 -238 34 -32 55 -57 48 -57 -20 0 -98
55 -123 85 -20 26 -22 26 -38 10 -81 -80 -161 -266 -182 -420 l-7 -50 67 72
c162 177 361 250 525 193 30 -10 56 -18 57 -17 3 4 -366 482 -374 484 -5 2
-21 -26 -36 -62z m115 -102 c21 -24 29 -73 12 -73 -46 0 -89 44 -77 78 7 18
48 15 65 -5z m122 -102 c3 -5 0 -13 -7 -19 -15 -13 -42 1 -33 17 9 13 33 15
40 2z"/>
<path d="M1372 880 c0 -19 2 -27 5 -17 2 9 2 25 0 35 -3 9 -5 1 -5 -18z"/>
<path d="M739 858 c-23 -18 -56 -50 -73 -71 -26 -33 -31 -48 -34 -109 -4 -58
0 -79 19 -119 12 -27 26 -46 29 -42 4 5 15 28 24 53 27 71 91 172 135 215 38
37 39 40 26 66 -26 49 -67 52 -126 7z"/>
<path d="M1470 876 c0 -2 7 -7 16 -10 8 -3 12 -2 9 4 -6 10 -25 14 -25 6z"/>
<path d="M1575 790 c10 -11 20 -20 23 -20 3 0 -3 9 -13 20 -10 11 -20 20 -23
20 -3 0 3 -9 13 -20z"/>
<path d="M1390 765 c13 -14 26 -25 28 -25 3 0 -5 11 -18 25 -13 14 -26 25 -28
25 -3 0 5 -11 18 -25z"/>
<path d="M1633 645 c0 -22 2 -30 4 -17 2 12 2 30 0 40 -3 9 -5 -1 -4 -23z"/>
<path d="M1311 394 c-26 -22 -32 -23 -37 -10 -3 9 -10 16 -15 16 -14 0 -10
-26 5 -40 8 -6 16 -28 18 -48 4 -48 34 -64 111 -59 42 2 64 9 78 24 20 19 20
22 5 51 -18 35 -71 76 -86 67 -5 -3 -10 -15 -10 -25 0 -10 -3 -21 -8 -24 -4
-2 -6 13 -4 35 5 48 -12 51 -57 13z"/>
<path d="M1692 370 c0 -14 2 -19 5 -12 2 6 2 18 0 25 -3 6 -5 1 -5 -13z"/>
</g>
</svg>
